<?xml version="1.0" encoding="iso-8859-1"?>
<!-- Generator: Adobe Illustrator 19.0.0, SVG Export Plug-In . SVG Version: 6.00 Build 0)  -->
<svg version="1.1" id="Capa_1" xmlns="http://www.w3.org/2000/svg" xmlns:xlink="http://www.w3.org/1999/xlink" x="0px" y="0px"
	 viewBox="0 0 480 480" style="enable-background:new 0 0 480 480;" xml:space="preserve">
<g>
	<g>
		<path d="M396,224c15.464,0,28-12.536,28-28v-72.688l21.832-21.84L480,65.024V41.64l-45.656,48.704l-24,24
			c-1.5,1.5-2.344,3.534-2.344,5.656v76c0,6.627-5.373,12-12,12c-6.627,0-12-5.373-12-12v-28c-0.001-4.418-3.583-7.999-8.002-7.998
			c-2.121,0-4.154,0.843-5.654,2.342L319.2,213.472l-9.6,9.6c-3.124,3.123-8.188,3.123-11.312,0L291.312,216l50.344-50.344
			l-11.312-11.312L280,204.688L267.312,192l50.344-50.344l-11.312-11.312L256,180.688L243.312,168l50.344-50.344l-11.312-11.312
			L232,156.688l-7.032-7.032c-3.123-3.124-3.123-8.188,0-11.312L363.312,0h-22.624L213.656,127.032
			c-1.911,1.947-3.475,4.206-4.624,6.68L187.312,112H196c15.464,0,28-12.536,28-28s-12.536-28-28-28h-72.688l-56-56H44.688
			l69.656,69.656c1.5,1.5,3.534,2.344,5.656,2.344h76c6.627,0,12,5.373,12,12s-5.373,12-12,12h-28
			c-4.418,0.001-7.999,3.583-7.998,8.002c0,2.121,0.843,4.154,2.342,5.654l51.312,51.312l9.6,9.6c3.015,3.025,3.015,7.919,0,10.944
			l-7.2,7.2l-50.344-50.344L154.4,149.68L204.688,200L192,212.688l-50.344-50.344l-11.312,11.312L180.688,224L168,236.688
			l-50.344-50.344l-11.312,11.312L156.688,248l-7.2,7.2c-3.025,3.015-7.919,3.015-10.944,0L0,116.688v22.624l127.2,127.2
			c1.889,1.845,4.074,3.359,6.464,4.48L112,292.688V284c0-15.464-12.536-28-28-28s-28,12.536-28,28v72.688l-56,56v22.624
			l69.656-69.656c1.5-1.5,2.344-3.534,2.344-5.656v-76c0-6.627,5.373-12,12-12s12,5.373,12,12v28
			c0.001,4.418,3.583,7.999,8.002,7.998c2.121,0,4.154-0.843,5.654-2.342l51.144-51.128l9.6-9.6c3.124-3.123,8.188-3.123,11.312,0
			l7.032,7.032L138.4,314.304l11.312,11.312L200,275.312L212.688,288l-50.344,50.344l11.312,11.312L224,299.312L236.688,312
			l-50.344,50.344l11.312,11.312L248,323.312l7.032,7.032c3.123,3.124,3.123,8.188,0,11.312L116.688,480h22.624l127.032-127.032
			c1.912-1.95,3.474-4.215,4.616-6.696L292.688,368H284c-15.464,0-28,12.536-28,28c0,15.464,12.536,28,28,28h72.688l56,56h22.624
			l-69.656-69.656c-1.5-1.5-3.534-2.344-5.656-2.344h-76c-6.627,0-12-5.373-12-12c0-6.627,5.373-12,12-12h28
			c4.418-0.001,7.999-3.583,7.998-8.002c0-2.121-0.843-4.154-2.342-5.654l-51.312-51.312l-9.6-9.6
			c-3.015-3.025-3.015-7.919,0-10.944l7.2-7.2l50.344,50.344L325.6,330.32L275.312,280L288,267.312l50.344,50.344l11.312-11.312
			L299.312,256L312,243.312l50.344,50.344l11.312-11.312L323.312,232l7.2-7.2c3.085-3.025,8.039-2.976,11.064,0.109
			c0.029,0.03,0.059,0.06,0.088,0.091L480,353.6v-21.84L352.8,213.472c-1.888-1.845-4.074-3.359-6.464-4.48L368,187.312V196
			C368,211.464,380.536,224,396,224z M245.472,287.2c-1.849,1.885-3.364,4.071-4.48,6.464l-48-48
			c-1.95-1.912-4.215-3.474-6.696-4.616l48.232-48.248c1.849-1.885,3.364-4.071,4.48-6.464l48,48
			c1.95,1.912,4.215,3.473,6.696,4.616L245.472,287.2z"/>
	</g>
</g>
<g>
</g>
<g>
</g>
<g>
</g>
<g>
</g>
<g>
</g>
<g>
</g>
<g>
</g>
<g>
</g>
<g>
</g>
<g>
</g>
<g>
</g>
<g>
</g>
<g>
</g>
<g>
</g>
<g>
</g>
</svg>
