<?xml version="1.0" encoding="utf-8"?>
<!-- Generator: Adobe Illustrator 19.2.0, SVG Export Plug-In . SVG Version: 6.00 Build 0)  -->
<svg version="1.1" id="Layer_1" xmlns="http://www.w3.org/2000/svg" xmlns:xlink="http://www.w3.org/1999/xlink" x="0px" y="0px"
	 viewBox="0 0 222.8 135.9" style="enable-background:new 0 0 222.8 135.9;" xml:space="preserve">
<style type="text/css">
	.st0{fill:#D96F6B;}
	.st1{fill:#CD434E;}
	.st2{fill:#B6CE35;}
	.st3{fill:#95C23D;}
	.st4{fill:#932F3F;}
	.st5{fill:#E3C8AC;}
	.st6{fill:#DFA289;}
	.st7{fill:#DD9379;}
	.st8{fill:#E0AA95;}
	.st9{fill:#DD957A;}
	.st10{fill:#E2BB99;}
	.st11{fill:#CC2639;}
	.st12{fill:#B22B3C;}
	.st13{fill:#D5DA2A;}
	.st14{fill:#72C1A5;}
	.st15{fill:#CE5052;}
	.st16{fill:none;stroke:#95C23D;stroke-miterlimit:10;}
	.st17{fill:#CF122D;}
	.st18{fill:#CF0A2C;}
	.st19{fill:#77BC1F;}
	.st20{fill:#76B82A;}
	.st21{fill:#D41230;}
	.st22{display:none;}
	.st23{display:inline;fill:#FFFFFF;}
	.st24{display:inline;}
	.st25{fill:#FFFFFF;}
	.st26{fill:#0098CE;}
	.st27{fill:#005C9A;}
	.st28{fill:#C9E0F0;}
	.st29{fill:#80BBDD;}
	.st30{fill:#A6CDE8;}
	.st31{fill:#B6D3EA;}
	.st32{fill:#00A5D3;}
	.st33{fill:#00AFDD;}
	.st34{fill:#96C5E1;}
	.st35{fill:#00A1D6;}
	.st36{fill:#0074AF;}
	.st37{fill:#00A5D6;}
	.st38{fill:#0092CA;}
	.st39{fill:#3C3C3B;}
	.st40{fill:#363534;}
	.st41{fill:#C8D400;}
	.st42{fill:#9AC31C;}
	.st43{fill:#009DCC;}
</style>
<g>
	<g>
		<polygon class="st27" points="91.5,62.3 105.5,78 90.8,66.7 		"/>
		<path class="st28" d="M70.9,66.1c0.6,0.2,1.2,0.4,1.8,0.6L63.1,73L70.9,66.1z"/>
		<path class="st29" d="M70.9,66.1l-7.7,7l3.9-8.5C68.3,65.1,69.5,65.6,70.9,66.1z"/>
		<path class="st29" d="M71.1,57.8l1.5,9c-0.6-0.2-1.2-0.4-1.8-0.6L71.1,57.8z"/>
		<path class="st30" d="M67.7,56.6c1.1,0.5,2.3,0.9,3.4,1.2l-0.3,8.3c-1.3-0.5-2.6-1-3.9-1.6L67.7,56.6z"/>
		<path class="st29" d="M67.7,56.6L67,64.5c-1.4-0.7-2.8-1.4-4.2-2.1l2.4-6.9C66.1,55.9,66.9,56.3,67.7,56.6z"/>
		<path class="st30" d="M65.2,55.5l-2.4,6.9c-1.9-1.1-3.7-2.2-5.4-3.4l5.1-5C63.4,54.5,64.3,55,65.2,55.5z"/>
		<path class="st29" d="M62.8,62.4l-4.5,7.9c-2.1-1.3-4-2.6-5.8-3.9l4.9-7.4l0,0C59.1,60.2,60.9,61.3,62.8,62.4z"/>
		<path class="st31" d="M67,64.5L63.1,73c-1.7-0.9-3.3-1.8-4.8-2.7l4.5-7.9C64.2,63.1,65.6,63.8,67,64.5z"/>
		<path class="st28" d="M58.3,70.3c1.5,0.9,3.1,1.8,4.8,2.7L49.4,79L58.3,70.3L58.3,70.3z"/>
		<path class="st32" d="M58.3,70.3L58.3,70.3l-9,8.6l3.1-12.6C54.3,67.7,56.3,69,58.3,70.3z"/>
		<polygon class="st33" points="45.5,87.3 47.6,97.3 42.5,93.7 		"/>
		<polygon class="st34" points="49.4,79 47.6,97.3 45.5,87.3 		"/>
		<polygon class="st33" points="49.4,79 45.5,87.3 38.9,84.2 		"/>
		<polygon class="st35" points="45.5,87.3 42.5,93.7 38.9,84.2 		"/>
		<polygon class="st33" points="28.2,89.5 38.9,84.2 32.7,96.4 		"/>
		<polygon class="st29" points="38.9,84.2 28.2,89.5 30.9,84.2 30.9,84.2 		"/>
		<path class="st36" d="M45.6,60.4c-14.3,0.2-24.2-8.8-24.2-8.8l18.7,2.8l0.2,0C41.9,56.3,43.6,58.4,45.6,60.4z"/>
		<path class="st32" d="M53.8,56.2l-8.1,4.2c0,0,0,0,0,0c-2-2-3.7-4.1-5.3-6.1l9.3-1.7C51,53.8,52.3,55,53.8,56.2z"/>
		<path class="st32" d="M49.7,52.5l-9.3,1.7c-2.4-3.2-4.2-6.3-5.6-9.4l1.8,0.2l7.3,1C45.6,48.3,47.5,50.5,49.7,52.5z"/>
		<path class="st32" d="M43.8,46.1l-7.3-1C34,42.6,31.8,37.5,31,34l1.6,0.7l4.6,1.9C39,39.7,41.2,42.9,43.8,46.1z"/>
		<path class="st32" d="M37.2,36.6l-4.6-1.9l0,0C30.2,28,30,20.8,30,20.8c0,0,0,0,0,0C30.1,21,32.1,28,37.2,36.6z"/>
		<path class="st36" d="M67.4,49.2l-22.5-9.4c-6-6.1-11.3-12.9-14.9-19.1c0,0,0,0,0,0L67.4,49.2z"/>
		<polygon class="st36" points="91.5,62.3 90.8,66.7 72.6,66.7 		"/>
		<g>
			<polygon class="st26" points="38.9,84.2 42.5,93.7 32.7,96.4 			"/>
			<polygon class="st26" points="30.9,84.2 28.2,89.5 23.9,89.5 			"/>
			<path class="st26" d="M45.7,60.4l-7.1,9.1c0,0-3.7-1.5-8.1-5.7l1.6-0.4L45.7,60.4C45.6,60.4,45.6,60.4,45.7,60.4z"/>
			<path class="st26" d="M21.5,51.6c0,0,9.8,9,24.2,8.8c0,0,0,0,0,0l-13.6,3C29,61.8,24.2,57,21.5,51.6z"/>
			<path class="st26" d="M60.5,52.8l-6.7,3.4c-1.4-1.2-2.8-2.4-4.1-3.7l8.2-1.5C58.8,51.6,59.6,52.2,60.5,52.8z"/>
			<path class="st26" d="M57.9,51l-8.2,1.5c-2.1-2.1-4.1-4.2-5.8-6.4l9.3,1.2C54.7,48.7,56.3,49.9,57.9,51z"/>
			<path class="st26" d="M53.1,47.4l-9.3-1.2c-2.6-3.2-4.8-6.5-6.6-9.5l7.6,3.2C47.5,42.5,50.3,45,53.1,47.4z"/>
			<path class="st26" d="M44.9,39.8l-7.6-3.2C32.1,28,30.1,21,30,20.8C33.6,26.9,38.9,33.7,44.9,39.8z"/>
			<polygon class="st26" points="91.5,62.3 72.6,66.7 86.6,59 			"/>
		</g>
		<polygon class="st37" points="79.2,54 86.6,59 72.6,66.7 		"/>
		<path class="st14" d="M151.8,96c0.3,0.2,0.6,0.4,0.9,0.5h-0.9V96z"/>
		<g>
			<path class="st26" d="M138.3,88c0.4,0.3,0.8,0.5,1.3,0.8c-0.1,0.5-0.2,0.9-0.2,1.4v0c0,0.8,0.1,1.5,0.4,2.1
				c0.2,0.6,0.6,1.2,1,1.7c0.4,0.5,1,0.8,1.6,1.1c0.6,0.3,1.3,0.4,2.1,0.4c0.7,0,1.4-0.1,2-0.4c0.6-0.2,1.2-0.5,1.6-0.9v-0.4
				c0.5,0.3,0.9,0.5,1.4,0.8v0.2c-0.6,0.5-1.3,1-2.2,1.4c-0.9,0.4-1.8,0.6-2.9,0.6c-1,0-1.9-0.2-2.7-0.5c-0.8-0.3-1.5-0.8-2-1.4
				s-1-1.3-1.3-2.1c-0.3-0.8-0.4-1.6-0.4-2.5v0C137.9,89.5,138,88.7,138.3,88z"/>
			<path class="st26" d="M134.2,94.1v-8.7c0.5,0.3,0.9,0.6,1.4,0.9v10.3h-1.1l-8.1-10.3V94c-0.5-0.2-0.9-0.5-1.4-0.7V84h1.3
				L134.2,94.1z"/>
			<path class="st26" d="M122,84v7.8c-0.5-0.2-1-0.5-1.4-0.7V84H122z"/>
			<path class="st26" d="M117.6,84v5.6c-0.5-0.3-1-0.5-1.4-0.8v-2.4l-1.2,1.8c-0.4-0.2-0.8-0.4-1.2-0.6l2.4-3.5H117.6z"/>
		</g>
		<g>
			<path class="st26" d="M126.4,94v2.6H125v-3.3C125.4,93.5,125.9,93.7,126.4,94z"/>
			<path class="st26" d="M122,91.8v4.7h-1.4v-5.5C121.1,91.3,121.6,91.6,122,91.8z"/>
			<path class="st26" d="M117.6,89.6v7h-1.4v-7.8C116.7,89.1,117.2,89.3,117.6,89.6z"/>
			<path class="st26" d="M107,86.4v10.2h-1.4V84h1.4l4.6,6.9l2.2-3.3c0.4,0.2,0.8,0.4,1.2,0.6l-3.4,5h-0.1L107,86.4z"/>
			<path class="st26" d="M96.8,90.8l4.6-6.9h1.4v12.6h-1.4V86.4l-4.6,6.7h-0.1l-4.6-6.7v9.1c-0.5-0.2-0.9-0.4-1.4-0.6V84h1.4
				L96.8,90.8z"/>
			<path class="st26" d="M88.1,91.2c0,0.9-0.1,1.7-0.4,2.4c-0.4-0.2-0.9-0.4-1.3-0.6c0.1-0.5,0.2-1,0.2-1.6V84h1.4V91.2z"/>
			<path class="st26" d="M79,84v5c-0.5-0.3-1-0.6-1.4-0.9V84H79z"/>
			<path class="st26" d="M75,84v2.4c-0.5-0.3-1-0.7-1.4-1V84H75z"/>
		</g>
		<g>
			<path class="st29" d="M92.1,95.5v1h-1.4v-1.6C91.2,95.1,91.7,95.3,92.1,95.5z"/>
			<path class="st29" d="M77.6,91.3v-3.2c0.5,0.3,0.9,0.6,1.4,0.9v2.2c0,1.4,0.3,2.4,1,3.1c0.7,0.7,1.6,1.1,2.8,1.1
				c1.2,0,2.1-0.3,2.8-1c0.4-0.4,0.7-0.9,0.8-1.5c0.4,0.2,0.8,0.4,1.3,0.6c0,0,0,0,0,0.1c-0.3,0.7-0.6,1.3-1.1,1.7
				c-0.5,0.5-1,0.8-1.7,1.1c-0.6,0.2-1.4,0.4-2.1,0.4c-0.8,0-1.5-0.1-2.1-0.4c-0.6-0.2-1.2-0.6-1.7-1c-0.5-0.5-0.8-1-1.1-1.7
				C77.8,93,77.6,92.2,77.6,91.3z"/>
			<path class="st29" d="M64.9,96.6V84h1.4v5.6h7.3v-4.1c0.5,0.3,0.9,0.7,1.4,1v10.1h-1.4v-5.7h-7.3v5.7H64.9z"/>
		</g>
		<polygon class="st37" points="71.1,57.8 72.6,66.7 73.8,56 		"/>
		<polygon class="st33" points="79.2,54 73.8,56 72.6,66.7 		"/>
		<g>
			<path class="st20" d="M190.1,92.3c0.2-0.6,0.4-1.3,0.4-1.9v0c0-0.7-0.1-1.3-0.4-1.9c-0.3-0.6-0.6-1.1-1-1.6
				c-0.5-0.5-1-0.8-1.6-1.1c-0.6-0.3-1.4-0.4-2.2-0.4h-2.9v10h2.9c0.8,0,1.5-0.1,2.2-0.4c0.7-0.3,1.2-0.6,1.6-1
				C189.5,93.4,189.8,92.9,190.1,92.3z M190,85.8c0.6,0.6,1.1,1.2,1.4,2c0.3,0.8,0.5,1.6,0.5,2.5v0c0,0.9-0.2,1.7-0.5,2.5
				c-0.3,0.8-0.8,1.4-1.4,2c-0.6,0.6-1.3,1-2.1,1.3c-0.8,0.3-1.7,0.5-2.7,0.5h-4.4V84h4.4c1,0,1.9,0.2,2.7,0.5
				C188.7,84.8,189.4,85.2,190,85.8z"/>
			<path class="st20" d="M177.6,85.2c0.3,0.3,0.6,0.7,0.7,1.1c0.2,0.4,0.3,0.9,0.3,1.4v0c0,0.5-0.1,1-0.3,1.4
				c-0.2,0.4-0.4,0.8-0.7,1.1c-0.3,0.3-0.7,0.6-1.1,0.8c-0.4,0.2-0.9,0.3-1.4,0.4l3.9,5.1h-1.7l-3.6-4.9H170v4.9h-1.4V84h5.4
				c0.8,0,1.5,0.1,2.1,0.3C176.7,84.5,177.2,84.8,177.6,85.2z M177.1,87.8L177.1,87.8c0-0.8-0.3-1.4-0.8-1.9
				c-0.6-0.4-1.4-0.7-2.4-0.7H170v5.1h3.9c0.5,0,0.9-0.1,1.3-0.2c0.4-0.1,0.7-0.3,1-0.5c0.3-0.2,0.5-0.5,0.7-0.8
				C177,88.6,177.1,88.2,177.1,87.8z"/>
			<path class="st20" d="M165.6,84v9.8c-0.5-0.5-1-0.9-1.4-1.4V84H165.6z"/>
			<path class="st20" d="M157.6,85.3c-0.4-0.4-0.8-0.9-1.1-1.3h0.7c0.7,0,1.4,0.1,1.9,0.3c0.6,0.2,1,0.5,1.4,0.8
				c0.5,0.6,0.8,1.2,0.8,2v0c0,0.4-0.1,0.8-0.2,1.1c-0.1,0.2-0.2,0.4-0.3,0.6c-0.3-0.4-0.7-0.7-1-1.1c0-0.1,0-0.3,0-0.4v0
				c0-0.6-0.2-1.1-0.7-1.5C158.8,85.5,158.2,85.4,157.6,85.3z"/>
		</g>
		<g>
			<path class="st41" d="M165.6,93.8v2.8h-1.4v-4.2C164.7,92.8,165.1,93.3,165.6,93.8z"/>
			<path class="st41" d="M157.2,90.8h-4v4.4h4.2c1,0,1.7-0.2,2.3-0.6c0.6-0.4,0.8-0.9,0.8-1.7v0c0-0.7-0.3-1.2-0.8-1.6
				C159.1,91,158.3,90.8,157.2,90.8z M157.4,96.6h-4.6c-0.3-0.2-0.6-0.4-0.9-0.5V84h4.7c0.4,0.4,0.7,0.9,1.1,1.3c-0.2,0-0.4,0-0.6,0
				h-3.8v4.3h3.7c0.9,0,1.6-0.2,2.1-0.6c0.4-0.3,0.7-0.7,0.8-1.3c0.3,0.4,0.7,0.7,1,1.1c-0.1,0.1-0.1,0.2-0.2,0.2
				c-0.2,0.2-0.4,0.4-0.6,0.6c-0.2,0.2-0.5,0.3-0.7,0.4c0.4,0.1,0.7,0.3,1.1,0.4c0.3,0.2,0.6,0.4,0.9,0.6c0.2,0.2,0.4,0.5,0.6,0.9
				c0.1,0.3,0.2,0.7,0.2,1.1v0c0,0.5-0.1,1-0.3,1.4c-0.2,0.4-0.5,0.8-0.9,1.1c-0.4,0.3-0.9,0.5-1.4,0.7
				C158.7,96.5,158.1,96.6,157.4,96.6z"/>
			<path class="st41" d="M149.3,89.8v4.8c-0.5-0.3-0.9-0.5-1.4-0.8v-2.7h-3.8v-1.3H149.3z"/>
			<path class="st41" d="M141.6,84.3c0.8-0.4,1.6-0.5,2.6-0.5c0.5,0,1,0,1.4,0.1s0.8,0.2,1.2,0.3c0.4,0.1,0.7,0.3,1.1,0.5
				c0.3,0.2,0.7,0.5,1,0.7l-0.9,1.1c-0.2-0.2-0.5-0.4-0.8-0.6c-0.3-0.2-0.6-0.3-0.9-0.5c-0.3-0.1-0.6-0.2-1-0.3
				c-0.4-0.1-0.8-0.1-1.2-0.1c-0.7,0-1.3,0.1-1.9,0.4c-0.6,0.3-1.1,0.6-1.5,1.1c-0.4,0.5-0.8,1-1,1.6c-0.1,0.2-0.1,0.4-0.2,0.5
				c-0.4-0.3-0.9-0.5-1.3-0.8c0-0.1,0-0.1,0.1-0.2c0.3-0.8,0.7-1.5,1.3-2.1C140.2,85.1,140.9,84.6,141.6,84.3z"/>
			<path class="st41" d="M135.6,84v2.3c-0.5-0.3-0.9-0.6-1.4-0.9V84H135.6z"/>
		</g>
		<path class="st20" d="M45.7,60.4L49.4,79l-10.5,5.3L45.7,60.4C45.7,60.4,45.7,60.4,45.7,60.4z"/>
		<polygon class="st20" points="38.5,69.5 30.9,84.2 30.9,84.2 23.9,89.5 		"/>
		<path class="st42" d="M67.4,49.2L62.5,54c-0.7-0.4-1.4-0.8-2-1.2L67.4,49.2z"/>
		<polygon class="st42" points="73.6,50.2 71.1,57.8 67.4,49.2 		"/>
		<path class="st20" d="M86.6,51.1L79.2,54l-5.6-3.8C79.8,49.2,83.9,49.7,86.6,51.1z"/>
		<polygon class="st41" points="38.5,69.5 38.9,84.2 30.9,84.2 		"/>
		<path class="st41" d="M57.4,59L57.4,59l-4.9,7.4c-2.6-1.9-4.8-3.9-6.8-5.9l0-0.1l8.1-4.2C55,57.2,56.2,58.1,57.4,59z"/>
		<path class="st42" d="M67.4,49.2L57.9,51c-1.6-1.1-3.2-2.4-4.8-3.7L67.4,49.2z"/>
		<path class="st42" d="M67.4,49.2l0.3,7.4c-0.8-0.3-1.7-0.7-2.5-1.1L67.4,49.2z"/>
		<path class="st41" d="M86.6,51.1c5,2.5,5.1,7.8,4.9,11.2L86.6,59V51.1z"/>
		<polygon class="st41" points="73.6,50.2 71.1,57.8 73.8,56 		"/>
		<path class="st20" d="M67.4,49.2l3.7,8.5c-1.1-0.3-2.2-0.7-3.4-1.2L67.4,49.2z"/>
		<path class="st42" d="M45.7,60.4l-6.8,23.8l-0.4-14.7L45.7,60.4C45.7,60.4,45.7,60.4,45.7,60.4z"/>
		<path class="st42" d="M52.5,66.4L49.4,79l-3.7-18.5C47.7,62.5,50,64.4,52.5,66.4z"/>
		<path class="st20" d="M62.5,54l-5.1,5c-1.3-0.9-2.5-1.8-3.7-2.8l6.7-3.4C61.2,53.2,61.9,53.6,62.5,54z"/>
		<path class="st41" d="M67.4,49.2l-14.3-1.9c-2.8-2.3-5.6-4.9-8.2-7.5L67.4,49.2z"/>
		<path class="st20" d="M67.4,49.2l-6.9,3.5c-0.9-0.6-1.7-1.1-2.6-1.8L67.4,49.2z"/>
		<path class="st41" d="M67.4,49.2l-2.2,6.2c-0.9-0.4-1.8-0.9-2.7-1.4L67.4,49.2z"/>
		<polygon class="st42" points="86.6,51.1 86.6,59 79.2,54 		"/>
		<polygon class="st42" points="73.6,50.2 73.8,56 79.2,54 		"/>
	</g>
	<g>
		<path class="st29" d="M66.5,104.7h-2.1v-0.7h4.9v0.7h-2.1v5.6h-0.7V104.7z"/>
		<path class="st29" d="M70.4,103.8h0.7v2.7c0.2-0.2,0.4-0.5,0.6-0.6c0.2-0.2,0.6-0.3,1-0.3c0.3,0,0.5,0,0.7,0.1
			c0.2,0.1,0.4,0.2,0.6,0.4c0.2,0.2,0.3,0.4,0.3,0.6c0.1,0.2,0.1,0.5,0.1,0.8v2.9h-0.7v-2.7c0-0.4-0.1-0.8-0.3-1
			c-0.2-0.3-0.5-0.4-0.9-0.4c-0.2,0-0.4,0-0.5,0.1c-0.2,0.1-0.3,0.2-0.4,0.3c-0.1,0.1-0.2,0.3-0.3,0.5c-0.1,0.2-0.1,0.4-0.1,0.6v2.7
			h-0.7V103.8z"/>
		<path class="st29" d="M77.9,110.5c-0.3,0-0.6-0.1-0.9-0.2s-0.5-0.3-0.7-0.5s-0.4-0.5-0.5-0.8c-0.1-0.3-0.2-0.6-0.2-1v0
			c0-0.3,0.1-0.6,0.2-0.9s0.3-0.5,0.5-0.8c0.2-0.2,0.4-0.4,0.7-0.5c0.3-0.1,0.6-0.2,0.9-0.2c0.3,0,0.6,0.1,0.9,0.2s0.5,0.3,0.7,0.5
			c0.2,0.2,0.3,0.5,0.4,0.8c0.1,0.3,0.1,0.6,0.1,1c0,0,0,0.1,0,0.1c0,0,0,0.1,0,0.1h-3.7c0,0.3,0.1,0.5,0.2,0.7
			c0.1,0.2,0.2,0.4,0.4,0.5c0.1,0.1,0.3,0.2,0.5,0.3c0.2,0.1,0.4,0.1,0.6,0.1c0.3,0,0.6-0.1,0.8-0.2c0.2-0.1,0.4-0.3,0.6-0.5
			l0.4,0.4c-0.2,0.3-0.5,0.5-0.8,0.6C78.7,110.4,78.4,110.5,77.9,110.5z M79.3,107.8c0-0.2-0.1-0.4-0.1-0.6
			c-0.1-0.2-0.2-0.4-0.3-0.5c-0.1-0.1-0.3-0.3-0.4-0.3c-0.2-0.1-0.4-0.1-0.6-0.1c-0.2,0-0.4,0-0.6,0.1c-0.2,0.1-0.3,0.2-0.5,0.3
			c-0.1,0.1-0.2,0.3-0.3,0.5c-0.1,0.2-0.1,0.4-0.2,0.6H79.3z"/>
		<path class="st26" d="M84,104.1h0.7v6.3H84V104.1z"/>
		<path class="st26" d="M86.5,105.7h0.7v0.8c0.2-0.2,0.4-0.5,0.6-0.6c0.2-0.2,0.6-0.3,1-0.3c0.3,0,0.5,0,0.7,0.1
			c0.2,0.1,0.4,0.2,0.6,0.4c0.2,0.2,0.3,0.4,0.3,0.6c0.1,0.2,0.1,0.5,0.1,0.8v2.9h-0.7v-2.7c0-0.4-0.1-0.8-0.3-1
			c-0.2-0.3-0.5-0.4-0.9-0.4c-0.2,0-0.4,0-0.5,0.1c-0.2,0.1-0.3,0.2-0.4,0.3c-0.1,0.1-0.2,0.3-0.3,0.5c-0.1,0.2-0.1,0.4-0.1,0.6v2.7
			h-0.7V105.7z"/>
		<path class="st26" d="M93.9,110.5c-0.3,0-0.6-0.1-0.8-0.2c-0.3-0.1-0.5-0.3-0.7-0.5c-0.2-0.2-0.4-0.5-0.5-0.8s-0.2-0.6-0.2-1v0
			c0-0.4,0.1-0.7,0.2-1c0.1-0.3,0.3-0.5,0.5-0.8c0.2-0.2,0.4-0.4,0.7-0.5c0.3-0.1,0.5-0.2,0.8-0.2c0.2,0,0.4,0,0.6,0.1
			s0.3,0.1,0.5,0.2c0.1,0.1,0.3,0.2,0.4,0.3s0.2,0.2,0.3,0.4v-2.8h0.7v6.5h-0.7v-0.9c-0.1,0.1-0.2,0.3-0.3,0.4s-0.2,0.2-0.4,0.3
			c-0.1,0.1-0.3,0.2-0.5,0.2C94.3,110.4,94.1,110.5,93.9,110.5z M94,109.8c0.2,0,0.4,0,0.6-0.1c0.2-0.1,0.4-0.2,0.5-0.4
			c0.2-0.2,0.3-0.3,0.4-0.6s0.1-0.5,0.1-0.7v0c0-0.3,0-0.5-0.1-0.7c-0.1-0.2-0.2-0.4-0.4-0.6c-0.2-0.2-0.3-0.3-0.5-0.4
			c-0.2-0.1-0.4-0.1-0.6-0.1c-0.2,0-0.4,0-0.6,0.1c-0.2,0.1-0.4,0.2-0.5,0.3c-0.1,0.2-0.3,0.3-0.3,0.6c-0.1,0.2-0.1,0.5-0.1,0.8v0
			c0,0.3,0,0.5,0.1,0.7c0.1,0.2,0.2,0.4,0.4,0.6c0.1,0.2,0.3,0.3,0.5,0.4C93.6,109.8,93.8,109.8,94,109.8z"/>
		<path class="st26" d="M97.9,104h0.8v0.8h-0.8V104z M98,105.7h0.7v4.6H98V105.7z"/>
		<path class="st26" d="M101.6,110.5c-0.2,0-0.4,0-0.6-0.1c-0.2-0.1-0.4-0.2-0.6-0.3s-0.3-0.3-0.4-0.5c-0.1-0.2-0.1-0.4-0.1-0.6v0
			c0-0.2,0-0.5,0.1-0.6c0.1-0.2,0.2-0.3,0.4-0.5s0.4-0.2,0.6-0.3c0.2-0.1,0.5-0.1,0.8-0.1c0.3,0,0.6,0,0.8,0.1
			c0.2,0,0.4,0.1,0.6,0.1v-0.2c0-0.4-0.1-0.7-0.4-0.9c-0.2-0.2-0.6-0.3-1-0.3c-0.3,0-0.5,0-0.7,0.1s-0.4,0.1-0.7,0.2l-0.2-0.6
			c0.3-0.1,0.5-0.2,0.8-0.3c0.3-0.1,0.6-0.1,0.9-0.1c0.7,0,1.2,0.2,1.5,0.5c0.3,0.3,0.5,0.8,0.5,1.3v2.8h-0.7v-0.7
			c-0.2,0.2-0.4,0.4-0.6,0.6C102.4,110.4,102.1,110.5,101.6,110.5z M101.8,109.9c0.2,0,0.4,0,0.6-0.1c0.2-0.1,0.4-0.1,0.5-0.3
			c0.1-0.1,0.2-0.2,0.3-0.4c0.1-0.2,0.1-0.3,0.1-0.5v-0.4c-0.2,0-0.4-0.1-0.6-0.1c-0.2,0-0.5-0.1-0.8-0.1c-0.4,0-0.8,0.1-1,0.3
			c-0.2,0.2-0.3,0.4-0.3,0.7v0c0,0.1,0,0.3,0.1,0.4s0.1,0.2,0.3,0.3c0.1,0.1,0.2,0.1,0.4,0.2C101.5,109.9,101.6,109.9,101.8,109.9z"
			/>
		<path class="st26" d="M105.4,105.7h0.7v0.8c0.2-0.2,0.4-0.5,0.6-0.6c0.2-0.2,0.6-0.3,1-0.3c0.3,0,0.5,0,0.7,0.1
			c0.2,0.1,0.4,0.2,0.6,0.4c0.2,0.2,0.3,0.4,0.3,0.6c0.1,0.2,0.1,0.5,0.1,0.8v2.9h-0.7v-2.7c0-0.4-0.1-0.8-0.3-1
			c-0.2-0.3-0.5-0.4-0.9-0.4c-0.2,0-0.4,0-0.5,0.1c-0.2,0.1-0.3,0.2-0.4,0.3c-0.1,0.1-0.2,0.3-0.3,0.5c-0.1,0.2-0.1,0.4-0.1,0.6v2.7
			h-0.7V105.7z"/>
		<path class="st26" d="M116.5,110.5c-0.5,0-0.9-0.1-1.3-0.3c-0.4-0.2-0.7-0.4-1-0.7s-0.5-0.6-0.6-1s-0.2-0.8-0.2-1.2v0
			c0-0.4,0.1-0.8,0.2-1.2c0.2-0.4,0.4-0.7,0.7-1s0.6-0.5,1-0.7c0.4-0.2,0.8-0.3,1.3-0.3s0.9,0.1,1.3,0.3s0.7,0.4,1,0.7
			s0.5,0.6,0.6,1c0.2,0.4,0.2,0.8,0.2,1.2v0c0,0.4-0.1,0.8-0.2,1.2s-0.4,0.7-0.7,1c-0.3,0.3-0.6,0.5-1,0.7S117,110.5,116.5,110.5z
			 M116.5,109.8c0.4,0,0.7-0.1,1-0.2c0.3-0.1,0.6-0.3,0.8-0.5c0.2-0.2,0.4-0.5,0.5-0.8c0.1-0.3,0.2-0.6,0.2-1v0c0-0.4-0.1-0.7-0.2-1
			c-0.1-0.3-0.3-0.6-0.5-0.8s-0.5-0.4-0.8-0.6c-0.3-0.1-0.6-0.2-1-0.2c-0.4,0-0.7,0.1-1,0.2s-0.6,0.3-0.8,0.5s-0.4,0.5-0.5,0.8
			c-0.1,0.3-0.2,0.6-0.2,1v0c0,0.4,0.1,0.7,0.2,1c0.1,0.3,0.3,0.6,0.5,0.8s0.5,0.4,0.8,0.6S116.1,109.8,116.5,109.8z"/>
		<path class="st26" d="M123.1,110.5c-0.3,0-0.7-0.1-0.9-0.2c-0.3-0.1-0.5-0.3-0.8-0.5c-0.2-0.2-0.4-0.5-0.5-0.8s-0.2-0.6-0.2-0.9v0
			c0-0.3,0.1-0.6,0.2-0.9s0.3-0.5,0.5-0.8c0.2-0.2,0.5-0.4,0.8-0.5c0.3-0.1,0.6-0.2,0.9-0.2c0.2,0,0.4,0,0.6,0.1
			c0.2,0,0.3,0.1,0.5,0.2c0.1,0.1,0.3,0.2,0.4,0.3c0.1,0.1,0.2,0.2,0.3,0.3l-0.5,0.5c-0.2-0.2-0.4-0.4-0.6-0.5
			c-0.2-0.1-0.5-0.2-0.8-0.2c-0.2,0-0.5,0-0.7,0.1c-0.2,0.1-0.4,0.2-0.5,0.4c-0.1,0.2-0.3,0.3-0.3,0.6c-0.1,0.2-0.1,0.5-0.1,0.7v0
			c0,0.2,0,0.5,0.1,0.7c0.1,0.2,0.2,0.4,0.4,0.6c0.2,0.2,0.3,0.3,0.5,0.4c0.2,0.1,0.4,0.1,0.7,0.1c0.3,0,0.6-0.1,0.8-0.2
			s0.4-0.3,0.6-0.5l0.4,0.4c-0.2,0.3-0.5,0.5-0.8,0.6C123.9,110.4,123.6,110.5,123.1,110.5z"/>
		<path class="st26" d="M128.1,110.5c-0.3,0-0.6-0.1-0.9-0.2s-0.5-0.3-0.7-0.5s-0.4-0.5-0.5-0.8c-0.1-0.3-0.2-0.6-0.2-1v0
			c0-0.3,0.1-0.6,0.2-0.9s0.3-0.5,0.5-0.8c0.2-0.2,0.4-0.4,0.7-0.5c0.3-0.1,0.6-0.2,0.9-0.2c0.3,0,0.6,0.1,0.9,0.2s0.5,0.3,0.7,0.5
			c0.2,0.2,0.3,0.5,0.4,0.8c0.1,0.3,0.1,0.6,0.1,1c0,0,0,0.1,0,0.1c0,0,0,0.1,0,0.1h-3.7c0,0.3,0.1,0.5,0.2,0.7
			c0.1,0.2,0.2,0.4,0.4,0.5c0.1,0.1,0.3,0.2,0.5,0.3c0.2,0.1,0.4,0.1,0.6,0.1c0.3,0,0.6-0.1,0.8-0.2c0.2-0.1,0.4-0.3,0.6-0.5
			l0.4,0.4c-0.2,0.3-0.5,0.5-0.8,0.6C128.9,110.4,128.5,110.5,128.1,110.5z M129.4,107.8c0-0.2-0.1-0.4-0.1-0.6
			c-0.1-0.2-0.2-0.4-0.3-0.5c-0.1-0.1-0.3-0.3-0.4-0.3c-0.2-0.1-0.4-0.1-0.6-0.1c-0.2,0-0.4,0-0.6,0.1c-0.2,0.1-0.3,0.2-0.5,0.3
			c-0.1,0.1-0.2,0.3-0.3,0.5c-0.1,0.2-0.1,0.4-0.2,0.6H129.4z"/>
		<path class="st26" d="M132.7,110.5c-0.2,0-0.4,0-0.6-0.1c-0.2-0.1-0.4-0.2-0.6-0.3s-0.3-0.3-0.4-0.5c-0.1-0.2-0.1-0.4-0.1-0.6v0
			c0-0.2,0-0.5,0.1-0.6c0.1-0.2,0.2-0.3,0.4-0.5s0.4-0.2,0.6-0.3c0.2-0.1,0.5-0.1,0.8-0.1c0.3,0,0.6,0,0.8,0.1
			c0.2,0,0.4,0.1,0.6,0.1v-0.2c0-0.4-0.1-0.7-0.4-0.9c-0.2-0.2-0.6-0.3-1-0.3c-0.3,0-0.5,0-0.7,0.1s-0.4,0.1-0.7,0.2l-0.2-0.6
			c0.3-0.1,0.5-0.2,0.8-0.3c0.3-0.1,0.6-0.1,0.9-0.1c0.7,0,1.2,0.2,1.5,0.5c0.3,0.3,0.5,0.8,0.5,1.3v2.8h-0.7v-0.7
			c-0.2,0.2-0.4,0.4-0.6,0.6C133.4,110.4,133.1,110.5,132.7,110.5z M132.8,109.9c0.2,0,0.4,0,0.6-0.1c0.2-0.1,0.4-0.1,0.5-0.3
			c0.1-0.1,0.2-0.2,0.3-0.4c0.1-0.2,0.1-0.3,0.1-0.5v-0.4c-0.2,0-0.4-0.1-0.6-0.1c-0.2,0-0.5-0.1-0.8-0.1c-0.4,0-0.8,0.1-1,0.3
			c-0.2,0.2-0.3,0.4-0.3,0.7v0c0,0.1,0,0.3,0.1,0.4s0.1,0.2,0.3,0.3c0.1,0.1,0.2,0.1,0.4,0.2C132.5,109.9,132.7,109.9,132.8,109.9z"
			/>
		<path class="st26" d="M136.5,105.7h0.7v0.8c0.2-0.2,0.4-0.5,0.6-0.6c0.2-0.2,0.6-0.3,1-0.3c0.3,0,0.5,0,0.7,0.1
			c0.2,0.1,0.4,0.2,0.6,0.4c0.2,0.2,0.3,0.4,0.3,0.6c0.1,0.2,0.1,0.5,0.1,0.8v2.9h-0.7v-2.7c0-0.4-0.1-0.8-0.3-1
			c-0.2-0.3-0.5-0.4-0.9-0.4c-0.2,0-0.4,0-0.5,0.1c-0.2,0.1-0.3,0.2-0.4,0.3c-0.1,0.1-0.2,0.3-0.3,0.5c-0.1,0.2-0.1,0.4-0.1,0.6v2.7
			h-0.7V105.7z"/>
		<path class="st41" d="M144.8,104.1h0.7l2.3,3.4l2.3-3.4h0.7v6.3h-0.7v-5.1l-2.3,3.4h0l-2.3-3.3v5.1h-0.7V104.1z"/>
		<path class="st41" d="M153.8,110.5c-0.2,0-0.4,0-0.6-0.1c-0.2-0.1-0.4-0.2-0.6-0.3s-0.3-0.3-0.4-0.5c-0.1-0.2-0.1-0.4-0.1-0.6v0
			c0-0.2,0-0.5,0.1-0.6c0.1-0.2,0.2-0.3,0.4-0.5s0.4-0.2,0.6-0.3c0.2-0.1,0.5-0.1,0.8-0.1c0.3,0,0.6,0,0.8,0.1
			c0.2,0,0.4,0.1,0.6,0.1v-0.2c0-0.4-0.1-0.7-0.4-0.9c-0.2-0.2-0.6-0.3-1-0.3c-0.3,0-0.5,0-0.7,0.1s-0.4,0.1-0.7,0.2l-0.2-0.6
			c0.3-0.1,0.5-0.2,0.8-0.3c0.3-0.1,0.6-0.1,0.9-0.1c0.7,0,1.2,0.2,1.5,0.5c0.3,0.3,0.5,0.8,0.5,1.3v2.8h-0.7v-0.7
			c-0.2,0.2-0.4,0.4-0.6,0.6C154.6,110.4,154.2,110.5,153.8,110.5z M154,109.9c0.2,0,0.4,0,0.6-0.1c0.2-0.1,0.4-0.1,0.5-0.3
			c0.1-0.1,0.2-0.2,0.3-0.4c0.1-0.2,0.1-0.3,0.1-0.5v-0.4c-0.2,0-0.4-0.1-0.6-0.1c-0.2,0-0.5-0.1-0.8-0.1c-0.4,0-0.8,0.1-1,0.3
			c-0.2,0.2-0.3,0.4-0.3,0.7v0c0,0.1,0,0.3,0.1,0.4s0.1,0.2,0.3,0.3c0.1,0.1,0.2,0.1,0.4,0.2C153.7,109.9,153.8,109.9,154,109.9z"/>
		<path class="st41" d="M159.6,110.5c-0.3,0-0.6-0.1-0.8-0.2c-0.3-0.1-0.5-0.3-0.7-0.5c-0.2-0.2-0.4-0.5-0.5-0.8s-0.2-0.6-0.2-1v0
			c0-0.4,0.1-0.7,0.2-1c0.1-0.3,0.3-0.5,0.5-0.8c0.2-0.2,0.4-0.4,0.7-0.5c0.3-0.1,0.5-0.2,0.8-0.2c0.2,0,0.4,0,0.6,0.1
			s0.3,0.1,0.5,0.2c0.1,0.1,0.3,0.2,0.4,0.3s0.2,0.2,0.3,0.4v-2.8h0.7v6.5h-0.7v-0.9c-0.1,0.1-0.2,0.3-0.3,0.4s-0.2,0.2-0.4,0.3
			c-0.1,0.1-0.3,0.2-0.5,0.2C160,110.4,159.8,110.5,159.6,110.5z M159.7,109.8c0.2,0,0.4,0,0.6-0.1c0.2-0.1,0.4-0.2,0.5-0.4
			c0.2-0.2,0.3-0.3,0.4-0.6s0.1-0.5,0.1-0.7v0c0-0.3,0-0.5-0.1-0.7c-0.1-0.2-0.2-0.4-0.4-0.6c-0.2-0.2-0.3-0.3-0.5-0.4
			c-0.2-0.1-0.4-0.1-0.6-0.1c-0.2,0-0.4,0-0.6,0.1c-0.2,0.1-0.4,0.2-0.5,0.3c-0.1,0.2-0.3,0.3-0.3,0.6c-0.1,0.2-0.1,0.5-0.1,0.8v0
			c0,0.3,0,0.5,0.1,0.7c0.1,0.2,0.2,0.4,0.4,0.6c0.1,0.2,0.3,0.3,0.5,0.4C159.3,109.8,159.5,109.8,159.7,109.8z"/>
		<path class="st41" d="M165.6,110.5c-0.3,0-0.6-0.1-0.9-0.2s-0.5-0.3-0.7-0.5s-0.4-0.5-0.5-0.8c-0.1-0.3-0.2-0.6-0.2-1v0
			c0-0.3,0.1-0.6,0.2-0.9s0.3-0.5,0.5-0.8c0.2-0.2,0.4-0.4,0.7-0.5c0.3-0.1,0.6-0.2,0.9-0.2c0.3,0,0.6,0.1,0.9,0.2s0.5,0.3,0.7,0.5
			c0.2,0.2,0.3,0.5,0.4,0.8c0.1,0.3,0.1,0.6,0.1,1c0,0,0,0.1,0,0.1c0,0,0,0.1,0,0.1H164c0,0.3,0.1,0.5,0.2,0.7
			c0.1,0.2,0.2,0.4,0.4,0.5c0.1,0.1,0.3,0.2,0.5,0.3c0.2,0.1,0.4,0.1,0.6,0.1c0.3,0,0.6-0.1,0.8-0.2c0.2-0.1,0.4-0.3,0.6-0.5
			l0.4,0.4c-0.2,0.3-0.5,0.5-0.8,0.6C166.4,110.4,166,110.5,165.6,110.5z M166.9,107.8c0-0.2-0.1-0.4-0.1-0.6
			c-0.1-0.2-0.2-0.4-0.3-0.5c-0.1-0.1-0.3-0.3-0.4-0.3c-0.2-0.1-0.4-0.1-0.6-0.1c-0.2,0-0.4,0-0.6,0.1c-0.2,0.1-0.3,0.2-0.5,0.3
			c-0.1,0.1-0.2,0.3-0.3,0.5c-0.1,0.2-0.1,0.4-0.2,0.6H166.9z"/>
		<path class="st20" d="M171.6,104.1h4.5v0.6h-3.8v2.1h3.4v0.6h-3.4v2.2h3.9v0.6h-4.6V104.1z"/>
		<path class="st20" d="M178.9,110.5c-0.2,0-0.4,0-0.6-0.1c-0.2-0.1-0.4-0.2-0.6-0.3s-0.3-0.3-0.4-0.5c-0.1-0.2-0.1-0.4-0.1-0.6v0
			c0-0.2,0-0.5,0.1-0.6c0.1-0.2,0.2-0.3,0.4-0.5s0.4-0.2,0.6-0.3c0.2-0.1,0.5-0.1,0.8-0.1c0.3,0,0.6,0,0.8,0.1
			c0.2,0,0.4,0.1,0.6,0.1v-0.2c0-0.4-0.1-0.7-0.4-0.9c-0.2-0.2-0.6-0.3-1-0.3c-0.3,0-0.5,0-0.7,0.1s-0.4,0.1-0.7,0.2l-0.2-0.6
			c0.3-0.1,0.5-0.2,0.8-0.3c0.3-0.1,0.6-0.1,0.9-0.1c0.7,0,1.2,0.2,1.5,0.5c0.3,0.3,0.5,0.8,0.5,1.3v2.8h-0.7v-0.7
			c-0.2,0.2-0.4,0.4-0.6,0.6C179.6,110.4,179.3,110.5,178.9,110.5z M179,109.9c0.2,0,0.4,0,0.6-0.1c0.2-0.1,0.4-0.1,0.5-0.3
			c0.1-0.1,0.2-0.2,0.3-0.4c0.1-0.2,0.1-0.3,0.1-0.5v-0.4c-0.2,0-0.4-0.1-0.6-0.1c-0.2,0-0.5-0.1-0.8-0.1c-0.4,0-0.8,0.1-1,0.3
			c-0.2,0.2-0.3,0.4-0.3,0.7v0c0,0.1,0,0.3,0.1,0.4s0.1,0.2,0.3,0.3c0.1,0.1,0.2,0.1,0.4,0.2C178.7,109.9,178.9,109.9,179,109.9z"/>
		<path class="st20" d="M184.2,110.4c-0.3,0-0.7-0.1-1-0.2s-0.6-0.3-0.9-0.5l0.3-0.5c0.2,0.2,0.5,0.3,0.8,0.4
			c0.3,0.1,0.5,0.2,0.8,0.2c0.3,0,0.5-0.1,0.7-0.2s0.3-0.3,0.3-0.5v0c0-0.1,0-0.2-0.1-0.3c-0.1-0.1-0.1-0.2-0.3-0.2
			s-0.2-0.1-0.4-0.2s-0.3-0.1-0.4-0.1c-0.2-0.1-0.4-0.1-0.5-0.2s-0.3-0.1-0.5-0.2c-0.1-0.1-0.3-0.2-0.4-0.4
			c-0.1-0.1-0.1-0.3-0.1-0.5v0c0-0.2,0-0.4,0.1-0.5c0.1-0.2,0.2-0.3,0.3-0.4c0.1-0.1,0.3-0.2,0.5-0.3c0.2-0.1,0.4-0.1,0.6-0.1
			c0.3,0,0.6,0,0.9,0.1c0.3,0.1,0.6,0.2,0.8,0.4l-0.3,0.5c-0.2-0.1-0.4-0.2-0.7-0.3c-0.2-0.1-0.5-0.1-0.7-0.1
			c-0.3,0-0.5,0.1-0.7,0.2c-0.2,0.1-0.2,0.3-0.2,0.5v0c0,0.1,0,0.2,0.1,0.3c0.1,0.1,0.2,0.2,0.3,0.2s0.2,0.1,0.4,0.2
			c0.1,0,0.3,0.1,0.4,0.1c0.2,0.1,0.4,0.1,0.5,0.2c0.2,0.1,0.3,0.1,0.5,0.3c0.1,0.1,0.3,0.2,0.3,0.4c0.1,0.1,0.1,0.3,0.1,0.5v0
			c0,0.2,0,0.4-0.1,0.6c-0.1,0.2-0.2,0.3-0.3,0.4c-0.1,0.1-0.3,0.2-0.5,0.3C184.7,110.4,184.5,110.4,184.2,110.4z"/>
		<path class="st20" d="M190.5,105.7h0.7l-1.9,4.8c-0.2,0.5-0.4,0.8-0.7,1c-0.2,0.2-0.5,0.3-0.9,0.3c-0.2,0-0.4,0-0.5-0.1
			c-0.2,0-0.3-0.1-0.5-0.2l0.2-0.6c0.1,0.1,0.2,0.1,0.3,0.1c0.1,0,0.2,0,0.4,0c0.2,0,0.4-0.1,0.5-0.2c0.1-0.1,0.3-0.4,0.4-0.7
			l-2.1-4.6h0.8l1.7,3.9L190.5,105.7z"/>
	</g>
</g>
</svg>
