<svg height="512pt" viewBox="-74 0 511 512" width="512pt" xmlns="http://www.w3.org/2000/svg"><path d="m182.175781 0c-100.175781 0-181.675781 81.5-181.675781 181.675781 0 97.089844 118.855469 280.777344 181.675781 280.777344 62.824219 0 181.679688-183.6875 181.679688-280.777344 0-100.175781-81.5-181.675781-181.679688-181.675781zm0 429.417969c-31.652343 0-148.644531-154.960938-148.644531-247.742188 0-81.957031 66.6875-148.644531 148.644531-148.644531 81.960938 0 148.648438 66.6875 148.648438 148.644531 0 92.78125-116.992188 247.742188-148.648438 247.742188zm0 0"/><path d="m182.175781 66.066406c-15.136719 0-29.675781 3.328125-43.21875 9.894532-.015625.007812-.027343.027343-.046875.039062-21.226562 10.316406-38.121094 27.886719-47.570312 49.5-.003906.011719-.003906.019531-.007813.03125-5.472656 12.519531-8.25 25.855469-8.25 39.628906 0 54.648438 44.449219 99.097656 99.09375 99.097656 54.648438 0 99.097657-44.449218 99.097657-99.097656 0-54.644531-44.449219-99.09375-99.097657-99.09375zm0 165.160156c-36.425781 0-66.0625-29.636718-66.0625-66.066406 0-9.199218 1.84375-18.089844 5.488281-26.417968.003907-.003907.007813-.007813.011719-.015626 6.300781-14.421874 17.574219-26.144531 31.742188-33.035156.007812-.003906.015625-.003906.023437-.007812 9.007813-4.371094 18.691406-6.585938 28.796875-6.585938 36.429688 0 66.066407 29.636719 66.066407 66.0625 0 36.429688-29.636719 66.066406-66.066407 66.066406zm0 0"/><path d="m182.175781 512c-13.523437 0-132.128906-1.386719-132.128906-49.546875 0-8.75 4.300781-21.300781 24.785156-31.378906 8.167969-4.050781 18.078125-.660157 22.105469 7.523437 4.03125 8.179688.660156 18.082032-7.527344 22.105469-1.347656.667969-2.457031 1.28125-3.363281 1.839844 11.257813 6.855469 44.53125 16.425781 96.128906 16.425781 51.585938 0 84.863281-9.570312 96.121094-16.425781-.917969-.5625-2.054687-1.195313-3.441406-1.871094-8.195313-4.007813-11.582031-13.902344-7.566407-22.097656 4.007813-8.183594 13.902344-11.5625 22.097657-7.5625 20.597656 10.085937 24.917969 22.664062 24.917969 31.441406 0 48.160156-118.601563 49.546875-132.128907 49.546875zm0 0"/></svg>