<?xml version="1.0" encoding="iso-8859-1"?>
<!-- Generator: Adobe Illustrator 19.0.0, SVG Export Plug-In . SVG Version: 6.00 Build 0)  -->
<svg version="1.1" id="Capa_1" xmlns="http://www.w3.org/2000/svg" xmlns:xlink="http://www.w3.org/1999/xlink" x="0px" y="0px"
	 viewBox="0 0 448 448" style="enable-background:new 0 0 448 448;" xml:space="preserve">
<g>
	<g>
		<path d="M376,136H8c-4.8,0-8,3.2-8,8v224c0,4.8,3.2,8,8,8h368c4.8,0,8-3.2,8-8V144C384,139.2,380.8,136,376,136z M368,360H16V152
			h352V360z"/>
	</g>
</g>
<g>
	<g>
		<path d="M192,168c-27.2,0-48,38.4-48,88c0,49.6,20.8,88,48,88s48-38.4,48-88C240,206.4,219.2,168,192,168z M192,328
			c-15.2,0-32-29.6-32-72c0-42.4,16.8-72,32-72s32,29.6,32,72C224,298.4,207.2,328,192,328z"/>
	</g>
</g>
<g>
	<g>
		<path d="M53.6,162.4c-3.2-3.2-8-3.2-11.2,0l-16,16c-3.2,3.2-3.2,8,0,11.2c1.6,1.6,3.2,2.4,5.6,2.4s4-0.8,5.6-2.4l16-16
			C56.8,170.4,56.8,165.6,53.6,162.4z"/>
	</g>
</g>
<g>
	<g>
		<path d="M53.6,338.4l-16-16c-3.2-3.2-8-3.2-11.2,0c-3.2,3.2-3.2,8,0,11.2l16,16c3.2,3.2,8,3.2,11.2,0
			C56.8,346.4,56.8,341.6,53.6,338.4z"/>
	</g>
</g>
<g>
	<g>
		<path d="M357.6,178.4l-16-16c-3.2-3.2-8-3.2-11.2,0c-3.2,3.2-3.2,8,0,11.2l16,16c3.2,3.2,8,3.2,11.2,0
			C360.8,186.4,360.8,181.6,357.6,178.4z"/>
	</g>
</g>
<g>
	<g>
		<path d="M357.6,322.4c-3.2-3.2-8-3.2-11.2,0l-16,16c-3.2,3.2-3.2,8,0,11.2s8,3.2,11.2,0l16-16
			C360.8,330.4,360.8,325.6,357.6,322.4z"/>
	</g>
</g>
<g>
	<g>
		<path d="M112,248H56c-4.8,0-8,3.2-8,8s3.2,8,8,8h56c4.8,0,8-3.2,8-8S116.8,248,112,248z"/>
	</g>
</g>
<g>
	<g>
		<path d="M328,248h-56c-4.8,0-8,3.2-8,8s3.2,8,8,8h56c4.8,0,8-3.2,8-8S332.8,248,328,248z"/>
	</g>
</g>
<g>
	<g>
		<path d="M408,104H24c-4.8,0-8,3.2-8,8s3.2,8,8,8h376v240c0,4.8,3.2,8,8,8s8-3.2,8-8V112C416,107.2,412.8,104,408,104z"/>
	</g>
</g>
<g>
	<g>
		<path d="M440,72H40c-4.8,0-8,3.2-8,8s3.2,8,8,8h392v240c0,4.8,3.2,8,8,8s8-3.2,8-8V80C448,75.2,444.8,72,440,72z"/>
	</g>
</g>
<g>
</g>
<g>
</g>
<g>
</g>
<g>
</g>
<g>
</g>
<g>
</g>
<g>
</g>
<g>
</g>
<g>
</g>
<g>
</g>
<g>
</g>
<g>
</g>
<g>
</g>
<g>
</g>
<g>
</g>
</svg>
