<svg xmlns="http://www.w3.org/2000/svg" xml:space="preserve" style="enable-background:new 0 0 487.7 487.7" viewBox="0 0 487.7 487.7">
  <path d="M448.15 322.8c-9 8-21.8 4.5-21.8-11.1v-37.5c0-11.3-9.3-20.6-20.6-20.6h-26.3c3 6.1 4.6 12.7 4.6 19.3 0 23.1-18 40.6-42.8 41.6h-1.6c-24.8-1-42.8-18.5-42.8-41.6 0-6.7 1.6-13.3 4.6-19.3h-27.9c-11.1 0-20.2 9-20.2 20.2v37.9c0 15.6-13 19-22 11.1-14.9-13.1-37.6-6.1-38.6 17.8 1 23.9 23.7 30.9 38.5 17.8 9-8 22.1-4.5 22.1 11.1v37.1c0 11.1 9 20.2 20.2 20.2h37.6c15.6 0 19 13.1 11.1 22.1-13.1 14.9-6.1 37.8 17.8 38.8 23.9-1 30.9-23.9 17.8-38.8-8-9-4.5-22.2 11.1-22.2h37.4c11.1 0 20.2-9 20.2-20.2v-37.1c0-15.6 12.7-19 21.7-11.1 14.7 13.1 37.4 6.1 38.4-17.7-1-23.9-23.6-30.9-38.5-17.8z"/>
  <path d="M448.35 129.3c-9 8-22.2 4.5-22.2-11.1V81c0-11.1-9-20.2-20.2-20.2h-37.1c-15.6 0-19-12.7-11.1-21.7 13.1-14.9 6.1-37.6-17.8-38.6-23.9 1-30.9 23.6-17.8 38.5 8 9 4.5 21.8-11.1 21.8h-37.5c-11.3 0-20.6 9.3-20.6 20.6v26.3c6.1-3 12.7-4.6 19.3-4.6 23.2 0 40.7 18 41.7 42.8v1.6c-1 24.8-18.5 42.8-41.6 42.8-6.7 0-13.3-1.6-19.3-4.6v27.9c0 11.1 9 20.2 20.2 20.2h37.9c15.6 0 19 13 11.1 22-13.1 14.9-6.1 37.6 17.8 38.6 23.9-1 30.9-23.7 17.8-38.5-8-9-4.5-22.1 11.1-22.1h37.1c11.1 0 20.2-9 20.2-20.2V176c0-15.6 13.1-19 22.1-11.1 14.9 13.1 37.8 6.1 38.8-17.8-1-23.9-23.9-30.9-38.8-17.8zM214.45 253.3h-37.9c-15.6 0-19-13-11.1-22 13.1-14.9 6.1-37.6-17.8-38.6-23.9 1-30.9 23.7-17.8 38.5 8 9 4.5 22.1-11.1 22.1h-37.1c-11.1 0-20.2 9-20.2 20.2v37.6c0 15.6-13.1 19-22.1 11.1-14.9-13.1-37.8-6.1-38.8 17.8.9 23.7 23.9 30.7 38.7 17.6 9-8 22.2-4.5 22.2 11.1v37.4c0 11.1 9 20.2 20.2 20.2h37.1c15.6 0 19 12.7 11.1 21.7-13.1 14.9-6.1 37.6 17.8 38.6 23.9-1 30.9-23.6 17.8-38.5-8-9-4.5-21.8 11.1-21.8h37.5c11.3 0 20.6-9.3 20.6-20.6v-26.3c-6.1 3-12.7 4.6-19.3 4.6-23.1 0-40.6-18-41.6-42.8v-1.6c1-24.8 18.5-42.8 41.6-42.8 6.7 0 13.3 1.6 19.3 4.6v-27.9c0-11.1-9-20.2-20.2-20.2z"/>
  <path d="M256.45 129.2c-9 8-22.1 4.5-22.1-11.1v-37c0-11.1-9-20.2-20.2-20.2h-37.6c-15.6 0-19-13.1-11.1-22.1 13.1-14.9 6.1-37.8-17.8-38.8-23.9 1-30.9 23.9-17.8 38.8 8 9 4.5 22.2-11.1 22.2h-37.2c-11.1 0-20.2 9-20.2 20.2v37.1c0 15.6-12.7 19-21.7 11.1-14.9-13.1-37.6-6.1-38.6 17.8 1 23.7 23.6 30.7 38.5 17.6 9-8 21.8-4.5 21.8 11.1v37.5c0 11.3 9.3 20.6 20.6 20.6h26.3c-3-6.1-4.6-12.7-4.6-19.3 0-23.1 18-40.6 42.8-41.6h1.6c24.8 1 42.8 18.5 42.8 41.6 0 6.7-1.6 13.3-4.6 19.3h27.9c11.1 0 20.2-9 20.2-20.2v-37.9c0-15.6 13-19 22-11.1 14.9 13.1 37.6 6.1 38.6-17.8-1-23.9-23.7-30.9-38.5-17.8z"/>
</svg>
