<?xml version="1.0" encoding="UTF-8" standalone="no"?><!DOCTYPE svg PUBLIC "-//W3C//DTD SVG 1.1//EN" "http://www.w3.org/Graphics/SVG/1.1/DTD/svg11.dtd"><svg width="100%" height="100%" viewBox="0 0 512 512" version="1.1" xmlns="http://www.w3.org/2000/svg" xmlns:xlink="http://www.w3.org/1999/xlink" xml:space="preserve" xmlns:serif="http://www.serif.com/" style="fill-rule:evenodd;clip-rule:evenodd;stroke-linejoin:round;stroke-miterlimit:2;"><rect id="Artboard1" x="0" y="0" width="511.631" height="511.193" style="fill:none;"/><clipPath id="_clip1"><rect x="0" y="0" width="511.631" height="511.193"/></clipPath><g clip-path="url(#_clip1)"><g><path d="M352.459,220c0,-11.046 -8.954,-20 -20,-20l-206,0c-11.046,0 -20,8.954 -20,20c0,11.046 8.954,20 20,20l206,0c11.046,0 20,-8.954 20,-20Z" style="fill-rule:nonzero;"/><path d="M126.459,280c-11.046,0 -20,8.954 -20,20c0,11.046 8.954,20 20,20l125.111,0c11.046,0 20,-8.954 20,-20c0,-11.046 -8.954,-20 -20,-20l-125.111,0Z" style="fill-rule:nonzero;"/><path d="M262.459,472l-155.889,0c-22.056,0 -40,-17.944 -40,-40l0,-352c0,-22.056 17.944,-40 40,-40l245.889,0c22.056,0 40,17.944 40,40l0,123c0,11.046 8.954,20 20,20c11.046,0 20,-8.954 20,-20l0,-123c0,-44.112 -35.888,-80 -80,-80l-245.889,0c-44.112,0 -80,35.888 -80,80l0,352c0,44.112 35.888,80 80,80l155.889,0c11.046,0 20,-8.954 20,-20c0,-11.046 -8.954,-20 -20,-20Z" style="fill-rule:nonzero;"/><text x="284.984px" y="480.832px" style="font-family:'Arial-BoldMT', 'Arial', sans-serif;font-weight:700;font-size:311.378px;">$</text><path d="M332.459,120l-206,0c-11.046,0 -20,8.954 -20,20c0,11.046 8.954,20 20,20l206,0c11.046,0 20,-8.954 20,-20c0,-11.046 -8.954,-20 -20,-20Z" style="fill-rule:nonzero;"/></g></g></svg>