<?xml version="1.0" encoding="iso-8859-1"?>
<!-- Generator: Adobe Illustrator 19.0.0, SVG Export Plug-In . SVG Version: 6.00 Build 0)  -->
<svg version="1.1" id="Layer_1" xmlns="http://www.w3.org/2000/svg" xmlns:xlink="http://www.w3.org/1999/xlink" x="0px" y="0px"
	 viewBox="0 0 512 512" style="enable-background:new 0 0 512 512;" xml:space="preserve">
<circle style="fill:#005C83;" cx="256" cy="256" r="256"/>
<path style="fill:#00263F;" d="M512,256c0-20.408-2.401-40.253-6.913-59.282l-93.265-93.265l-37.504,34.69L264.62,28.444
	L28.444,264.62l120.134,120.134l-51.572,20.485l99.892,99.892C215.871,509.614,235.656,512,256,512C397.384,512,512,397.384,512,256
	z"/>
<circle style="fill:#6EBA3B;" cx="256" cy="256" r="218.074"/>
<path style="fill:#488057;" d="M256.002,37.928L256.002,37.928v436.146l0,0c120.439,0,218.074-97.633,218.074-218.072
	S376.441,37.928,256.002,37.928z"/>
<path style="fill:#FFDC00;" d="M399.598,91.889L256.003,256.002l154.2,154.202c39.464-39.464,63.872-93.982,63.872-154.2
	C474.076,190.562,445.243,131.862,399.598,91.889z"/>
<g>
	<circle style="fill:#FFFFFF;" cx="184.889" cy="166.357" r="12.067"/>
	<circle style="fill:#FFFFFF;" cx="324.956" cy="345.643" r="10.343"/>
	<path style="fill:#FFFFFF;" d="M483.556,247.38h-54.517C424.67,158.694,353.308,87.33,264.62,82.965v-54.52H247.38v54.52
		C158.694,87.331,87.331,158.696,82.965,247.38h-54.52v17.239h54.52c4.367,88.688,75.731,160.053,164.416,164.419v54.517h17.239
		v-54.517c88.688-4.367,160.054-75.731,164.419-164.419h54.517V247.38z M416.956,247.38H375.47
		c-4.234-59.201-51.648-106.613-110.849-110.845V95.048C346.652,99.392,412.612,165.35,416.956,247.38z M332.922,331.347
		c-2.36-1.321-5.073-2.081-7.964-2.081c-9.03,0-16.377,7.347-16.377,16.377c0,1.4,0.195,2.751,0.528,4.049
		c-13.326,7.583-28.412,12.398-44.487,13.677v-45.053c27.812-3.827,49.873-25.888,53.7-53.698h45.051
		C361.312,290.501,350.084,313.828,332.922,331.347z M177.142,182.691c2.353,1.121,4.973,1.767,7.747,1.767
		c9.981,0,18.101-8.12,18.101-18.101c0-1.324-0.152-2.612-0.422-3.856c13.407-7.692,28.606-12.578,44.813-13.867v45.053
		c-27.808,3.831-49.866,25.888-53.694,53.694h-45.053C150.616,222.491,161.077,199.961,177.142,182.691z M247.38,264.62v41.489
		c-21.144-3.629-37.86-20.346-41.488-41.489H247.38z M205.895,247.38c3.627-21.142,20.344-37.859,41.486-41.488v41.488H205.895z
		 M264.62,264.62h41.493c-3.627,21.145-20.346,37.866-41.493,41.491V264.62z M264.62,247.38v-41.488
		c21.145,3.625,37.864,20.344,41.491,41.488H264.62z M193.686,264.62c3.829,27.808,25.886,49.867,53.694,53.698v45.053
		c-52.545-4.184-94.565-46.206-98.747-98.749h45.053V264.62z M318.319,247.38c-3.829-27.81-25.89-49.869-53.7-53.696v-45.051
		c52.545,4.182,94.567,46.204,98.75,98.747H318.319z M247.38,95.048v41.486c-18.537,1.326-35.914,6.88-51.179,15.713
		c-3.101-2.491-7.032-3.991-11.312-3.991c-9.981,0-18.101,8.12-18.101,18.101c0,2.807,0.66,5.454,1.805,7.827
		c-18.232,19.465-30.041,44.99-32.058,73.197H95.049C99.394,165.352,165.352,99.394,247.38,95.048z M95.049,264.62h41.486
		c4.234,59.201,51.645,106.613,110.845,110.849v41.486C165.35,412.61,99.392,346.652,95.049,264.62z M264.62,416.954v-41.486
		c18.723-1.339,36.261-6.989,51.636-15.975c2.524,1.591,5.503,2.527,8.701,2.527c9.03,0,16.377-7.347,16.377-16.377
		c0-1.698-0.26-3.336-0.741-4.877c19.839-19.797,32.758-46.502,34.878-76.147h41.486C412.613,346.65,346.653,412.61,264.62,416.954z
		"/>
</g>
<path style="fill:#E0E0E0;" d="M429.04,247.38c-4.368-88.686-75.731-160.051-164.419-164.416v-54.52h-8.62v455.111h8.62v-54.517
	c88.688-4.367,160.054-75.731,164.419-164.419h54.515V247.38H429.04z M264.62,95.048c82.03,4.343,147.99,70.301,152.336,152.333
	H375.47c-4.234-59.201-51.648-106.613-110.849-110.845V95.048H264.62z M264.62,148.633c52.545,4.182,94.567,46.204,98.75,98.747
	h-45.051c-3.829-27.81-25.89-49.869-53.7-53.696V148.633z M264.62,205.893c21.145,3.625,37.864,20.344,41.491,41.488H264.62V205.893
	z M264.62,264.62h41.493c-3.627,21.145-20.346,37.866-41.493,41.491V264.62z M264.62,318.317
	c27.812-3.827,49.873-25.888,53.7-53.698h45.051c-2.06,25.881-13.288,49.209-30.449,66.727c-2.36-1.321-5.073-2.081-7.964-2.081
	c-9.03,0-16.377,7.347-16.377,16.377c0,1.4,0.195,2.751,0.527,4.049c-13.326,7.583-28.412,12.398-44.487,13.677V318.317z
	 M264.62,416.954v-41.486c18.723-1.339,36.261-6.989,51.636-15.975c2.524,1.591,5.503,2.527,8.701,2.527
	c9.03,0,16.377-7.347,16.377-16.377c0-1.698-0.26-3.336-0.741-4.877c19.839-19.797,32.758-46.502,34.878-76.147h41.486
	C412.613,346.65,346.653,412.61,264.62,416.954z"/>
</svg>
