<?xml version="1.0" encoding="UTF-8"?>
<svg width="48px" height="44px" viewBox="0 0 48 44" version="1.1" xmlns="http://www.w3.org/2000/svg" xmlns:xlink="http://www.w3.org/1999/xlink">
    <g id="Page-1" stroke="none" stroke-width="1" fill="none" fill-rule="evenodd">
        <g id="warning" fill-rule="nonzero">
            <path d="M30.2755313,3.7164375 L47.032125,32.7398437 C47.6466562,33.8041875 48,35.038125 48,36.3554062 C48,40.3557188 44.757,43.5989062 40.7565,43.5989062 L24,43.5989062 L18.2052188,21.84375 L24,0.0886875 C26.683125,0.0886875 29.0237812,1.54865625 30.2755313,3.7164375 Z" id="Path" fill="#525A61"></path>
            <path d="M17.7244687,3.7164375 L0.96778125,32.7398437 C0.35334375,33.8041875 0,35.038125 0,36.3554062 C0,40.3557188 3.243,43.5989062 7.2435,43.5989062 L24,43.5989062 L24,0.0886875 C21.316875,0.0886875 18.9762188,1.54865625 17.7244687,3.7164375 Z" id="Path" fill="#525A61"></path>
            <path d="M44.5230937,34.1885625 L27.7665937,5.1654375 C27.0113437,3.85678125 25.6245,3.03103125 24.1245937,2.9885625 L38.4560625,40.7018438 L40.7565937,40.7018438 C43.15275,40.7018438 45.1026562,38.7520313 45.1026562,36.3557812 C45.1026562,35.5947187 44.90175,34.8452812 44.5230937,34.1885625 Z" id="Path" fill="#FFD764"></path>
            <path d="M44.6024063,34.1885625 C44.9297812,34.8452812 45.1026563,35.5947188 45.1026563,36.3557812 C45.1026563,37.570896 44.5313638,38.9102847 43.3643221,39.6997939 C42.2300055,40.4671642 40.5297868,40.7018438 38.4559687,40.7018438 L7.2435,40.7018438 C4.84734375,40.7018438 2.8974375,38.7519375 2.8974375,36.3557812 C2.8974375,35.5947188 3.09834375,34.8452812 3.47690625,34.1885625 L20.2334063,5.1654375 C21.0099375,3.8210625 22.4528438,2.98565625 24,2.98565625 C24.0415312,2.98565625 24.0830625,2.98659375 24.1245938,2.9885625 C25.4119687,3.0388125 27.1185938,3.86259375 27.7665938,5.1654375 L44.6024063,34.1885625 Z" id="Path" fill="#FFD764"></path>
            <path d="M24,31.0435312 L24,35.8725 C25.3337812,35.8725 26.4145312,34.79175 26.4145312,33.4579687 C26.4145312,32.1242813 25.3337812,31.0435312 24,31.0435312 Z" id="Path" fill="#525A61"></path>
            <path d="M24,31.0435312 C24.2665312,31.0435312 24.4829062,32.1242812 24.4829062,33.4580625 C24.4829062,34.7918437 24.2665312,35.8725938 24,35.8725938 C22.6662187,35.8725938 21.5854688,34.7918437 21.5854688,33.4580625 C21.5854688,32.1242812 22.6662187,31.0435312 24,31.0435312 Z" id="Path" fill="#525A61"></path>
            <path d="M24,10.2793125 L24,28.1465625 C25.3337812,28.1465625 26.4145312,27.064875 26.4145312,25.7320312 L26.4145312,12.6938438 C26.4145312,11.3600625 25.3337812,10.2793125 24,10.2793125 Z" id="Path" fill="#525A61"></path>
            <path d="M24,10.2793125 C24.2665312,10.2793125 24.4829062,11.3600625 24.4829062,12.6938438 L24.4829062,25.7320312 C24.4829062,27.0647812 24.2665312,28.1465625 24,28.1465625 C22.6662187,28.1465625 21.5854688,27.064875 21.5854688,25.7320312 L21.5854688,12.6938438 C21.5854688,11.3600625 22.6662187,10.2793125 24,10.2793125 Z" id="Path" fill="#525A61"></path>
        </g>
    </g>
</svg>
