<svg width="280" height="280" viewBox="0 0 280 280" fill="none" xmlns="http://www.w3.org/2000/svg">
<path d="M127.908 62.566C136.972 57.6699 143.132 48.0606 143.132 37.0074C143.132 20.987 130.191 8 114.227 8C98.2628 8 85.3214 20.987 85.3214 37.0074C85.3214 47.2981 90.6613 56.3372 98.712 61.4865L110.725 171.494C111.077 174.713 112.453 177.57 114.491 179.774C116.899 183.47 121.06 185.912 125.789 185.912H182.773L215.04 238.218C218.961 244.575 227.275 246.538 233.609 242.603C239.943 238.668 241.9 230.325 237.978 223.968L202.076 165.767C200.42 163.082 197.98 161.181 195.237 160.177C193.466 159.319 191.479 158.838 189.38 158.838H138.421L133.776 116.294H162.402C167.723 116.294 172.037 111.965 172.037 106.625C172.037 101.285 167.723 96.9559 162.402 96.9559H131.664L127.908 62.566Z" />
<path d="M188.748 218.276C176.393 236.115 155.822 247.794 132.533 247.794C94.7521 247.794 64.1242 217.058 64.1242 179.143C64.1242 155.468 76.0671 134.591 94.2371 122.25L91.8263 96.8477C61.7009 111.883 41 143.087 41 179.143C41 229.874 81.9809 271 132.533 271C160.108 271 184.835 258.764 201.616 239.407L188.748 218.276Z"/>
</svg>
